<?xml version="1.0" encoding="UTF-8" standalone="no"?>
<!DOCTYPE svg PUBLIC "-//W3C//DTD SVG 1.1//EN" "http://www.w3.org/Graphics/SVG/1.1/DTD/svg11.dtd">
<svg xmlns="http://www.w3.org/2000/svg" xmlns:xl="http://www.w3.org/1999/xlink" version="1.1" viewBox="0 0 340.15748 340.15748" width="340.15748pt" height="340.15748pt" xmlns:dc="http://purl.org/dc/elements/1.1/"><metadata> Produced by OmniGraffle 6.6.1 <dc:date>2018-01-03 17:23:05 +0000</dc:date></metadata><defs/><g stroke="none" stroke-opacity="1" stroke-dasharray="none" fill="none" fill-opacity="1"><title>Canvas 1</title><g><title>Layer 1</title><circle cx="170.07873" cy="170.07873" r="147.4018" fill="#f90"/><path d="M 101.543307 93.543307 L 238.61417 93.543307 C 243.03245 93.543307 246.61417 97.12503 246.61417 101.543307 L 246.61417 119.559056 C 246.61417 123.977334 243.03245 127.559056 238.61417 127.559056 L 101.543307 127.559056 C 97.12503 127.559056 93.543307 123.977334 93.543307 119.559056 L 93.543307 101.543307 C 93.543307 97.12503 97.12503 93.543307 101.543307 93.543307 Z" fill="white"/><path d="M 101.543307 153.070865 L 238.61417 153.070865 C 243.03245 153.070865 246.61417 156.65259 246.61417 161.07087 L 246.61417 179.08661 C 246.61417 183.50489 243.03245 187.08661 238.61417 187.08661 L 101.543307 187.08661 C 97.12503 187.08661 93.543307 183.50489 93.543307 179.08661 L 93.543307 161.07087 C 93.543307 156.65259 97.12503 153.070865 101.543307 153.070865 Z" fill="white"/><path d="M 101.543307 212.59842 L 238.61417 212.59842 C 243.03245 212.59842 246.61417 216.18015 246.61417 220.59842 L 246.61417 238.61417 C 246.61417 243.03245 243.03245 246.61417 238.61417 246.61417 L 101.543307 246.61417 C 97.12503 246.61417 93.543307 243.03245 93.543307 238.61417 L 93.543307 220.59842 C 93.543307 216.18015 97.12503 212.59842 101.543307 212.59842 Z" fill="white"/></g></g></svg>
